# WaveFront *.obj file (generated by Cheetah3D)

mtllib mushroom.mtl

g mushroom
v 0.000000 0.045727 0.000000
v 0.000000 0.016805 0.566790
v 0.333151 0.016805 0.458543
v 0.539050 0.016805 0.175148
v 0.539050 0.016805 -0.175148
v 0.333151 0.016805 -0.458543
v -0.000000 0.016805 -0.566790
v -0.333151 0.016805 -0.458543
v -0.539050 0.016805 -0.175148
v -0.539050 0.016805 0.175148
v -0.333151 0.016805 0.458543
v 0.403890 2.866523 0.555909
v 0.000000 2.866523 0.687140
v 0.000000 2.866526 0.000000
v 0.653509 2.866523 0.212338
v 0.653509 2.866523 -0.212338
v 0.403890 2.866523 -0.555909
v -0.000000 2.866523 -0.687140
v -0.403891 2.866523 -0.555909
v -0.653509 2.866523 -0.212338
v -0.653509 2.866523 0.212338
v -0.403890 2.866523 0.555909
v 0.000000 1.177306 0.640666
v 0.376574 1.177306 0.518310
v -0.000000 1.251467 1.590000
v 0.934578 1.251467 1.286337
v 0.000000 1.798667 1.500000
v 0.881678 1.798667 1.213526
v 0.000000 2.599555 1.151852
v 0.677042 2.599555 0.931868
v 0.609310 1.177306 0.197977
v 1.512180 1.251467 0.491337
v 1.426585 1.798667 0.463525
v 1.095477 2.599555 0.355942
v 0.609310 1.177306 -0.197977
v 1.512180 1.251467 -0.491337
v 1.426585 1.798667 -0.463526
v 1.095477 2.599555 -0.355942
v 0.376574 1.177306 -0.518310
v 0.934578 1.251467 -1.286337
v 0.881678 1.798667 -1.213526
v 0.677041 2.599555 -0.931868
v -0.000000 1.177306 -0.640666
v -0.000000 1.251467 -1.590000
v -0.000000 1.798667 -1.500000
v -0.000000 2.599555 -1.151852
v -0.376574 1.177306 -0.518310
v -0.934579 1.251467 -1.286337
v -0.881678 1.798667 -1.213525
v -0.677042 2.599555 -0.931868
v -0.609310 1.177306 -0.197977
v -1.512180 1.251467 -0.491337
v -1.426585 1.798667 -0.463526
v -1.095477 2.599555 -0.355942
v -0.609310 1.177306 0.197977
v -1.512180 1.251467 0.491337
v -1.426585 1.798667 0.463526
v -1.095477 2.599555 0.355942
v -0.376574 1.177306 0.518310
v -0.934578 1.251467 1.286337
v -0.881677 1.798667 1.213526
v -0.677041 2.599555 0.931868
v -0.605971 0.099077 0.196892
v -0.605971 0.099077 -0.196892
v -0.374510 0.099077 0.515470
v 0.000000 0.099077 0.637155
v 0.374511 0.099077 0.515470
v 0.605971 0.099077 0.196892
v 0.605971 0.099077 -0.196892
v 0.374510 0.099077 -0.515470
v -0.000000 0.099077 -0.637155
v -0.374511 0.099077 -0.515470

vt 0.626677 0.893689
vt 0.649148 0.962848
vt 0.685507 0.936432
vt 0.699396 0.893689
vt 0.685508 0.850946
vt 0.649148 0.824529
vt 0.604206 0.824529
vt 0.567846 0.850946
vt 0.553958 0.893689
vt 0.567846 0.936432
vt 0.604206 0.962848
vt 0.756016 0.249023
vt 0.736774 0.231018
vt 0.720224 0.271502
vt 0.761646 0.275815
vt 0.751170 0.300736
vt 0.729049 0.314499
vt 0.703674 0.311986
vt 0.684432 0.293980
vt 0.678802 0.267188
vt 0.689278 0.242268
vt 0.711399 0.228504
vt 0.360948 0.699993
vt 0.357289 0.881467
vt 0.469696 0.785171
vt 0.393242 0.692703
vt 0.878757 0.839488
vt 0.897940 0.898528
vt 0.949923 0.860760
vt 0.899701 0.824272
vt 0.800590 0.051389
vt 0.774522 0.127264
vt 0.844280 0.186584
vt 0.907572 0.137562
vt 0.748826 0.200513
vt 0.782748 0.231501
vt 0.499692 0.661802
vt 0.399989 0.655453
vt 0.969779 0.799650
vt 0.907701 0.799651
vt 0.870728 0.282717
vt 0.958528 0.288166
vt 0.793340 0.278735
vt 0.454363 0.549408
vt 0.375050 0.649431
vt 0.949923 0.738541
vt 0.899701 0.775029
vt 0.830548 0.373616
vt 0.887108 0.430212
vt 0.774348 0.322604
vt 0.357289 0.492802
vt 0.319702 0.646097
vt 0.897940 0.700773
vt 0.878758 0.759813
vt 0.753032 0.422095
vt 0.769174 0.500657
vt 0.735637 0.346587
vt 0.216565 0.497255
vt 0.254169 0.646001
vt 0.833686 0.700773
vt 0.852870 0.759812
vt 0.665927 0.415739
vt 0.639858 0.491615
vt 0.691622 0.342490
vt 0.140948 0.562579
vt 0.198802 0.641716
vt 0.781703 0.738541
vt 0.831926 0.775028
vt 0.596168 0.356419
vt 0.532876 0.405442
vt 0.657701 0.311503
vt 0.113774 0.657412
vt 0.173867 0.654982
vt 0.761847 0.799650
vt 0.823925 0.799650
vt 0.569721 0.260286
vt 0.481920 0.254838
vt 0.647109 0.264268
vt 0.142598 0.804928
vt 0.176537 0.693663
vt 0.781703 0.860760
vt 0.831925 0.824271
vt 0.609901 0.169386
vt 0.553341 0.112790
vt 0.666100 0.220399
vt 0.216565 0.879983
vt 0.222793 0.699897
vt 0.833686 0.898528
vt 0.852869 0.839488
vt 0.687416 0.120908
vt 0.671275 0.042346
vt 0.704811 0.196416
vt 0.199871 0.643172
vt 0.175617 0.654599
vt 0.254626 0.641924
vt 0.319574 0.642187
vt 0.374264 0.646919
vt 0.398238 0.655836
vt 0.391047 0.695006
vt 0.360491 0.704071
vt 0.222922 0.703808
vt 0.177325 0.696174

vn -0.000000 -1.000000 -0.000000
vn -0.000000 -0.998701 -0.050962
vn -0.029955 -0.998701 -0.041229
vn -0.048468 -0.998701 -0.015748
vn -0.048468 -0.998701 0.015748
vn -0.029955 -0.998701 0.041229
vn 0.000000 -0.998701 0.050962
vn 0.029955 -0.998701 0.041229
vn 0.048468 -0.998701 0.015748
vn 0.048468 -0.998701 -0.015748
vn 0.029955 -0.998701 -0.041229
vn 0.150540 0.966647 0.207200
vn 0.000000 0.966647 0.256114
vn -0.000000 1.000000 0.000000
vn 0.243579 0.966647 0.079144
vn 0.243579 0.966647 -0.079144
vn 0.150540 0.966647 -0.207201
vn 0.000000 0.966647 -0.256114
vn -0.150540 0.966647 -0.207200
vn -0.243579 0.966647 -0.079144
vn -0.243579 0.966647 0.079144
vn -0.150540 0.966647 0.207201
vn 0.087931 -0.233729 0.968318
vn 0.000000 -0.003256 0.999995
vn 0.587782 -0.003256 0.809013
vn 0.498024 -0.233729 0.835070
vn 0.000000 -0.996963 0.077881
vn 0.045777 -0.996963 0.063007
vn 0.000000 0.162293 0.986743
vn 0.000000 0.283012 0.959116
vn 0.563754 0.283012 0.775941
vn 0.579993 0.162293 0.798292
vn 0.000000 0.670294 0.742095
vn 0.436193 0.670294 0.600368
vn 0.640301 -0.233729 0.731701
vn 0.951052 -0.003256 0.309015
vn 0.893752 -0.233729 0.382854
vn 0.074069 -0.996963 0.024067
vn 0.912174 0.283012 0.296383
vn 0.938448 0.162293 0.304920
vn 0.705774 0.670295 0.229320
vn 0.948097 -0.233729 0.215599
vn 0.951051 -0.003256 -0.309015
vn 0.948097 -0.233729 -0.215599
vn 0.074069 -0.996963 -0.024067
vn 0.912174 0.283012 -0.296383
vn 0.938448 0.162293 -0.304920
vn 0.705774 0.670295 -0.229320
vn 0.893752 -0.233729 -0.382855
vn 0.587782 -0.003256 -0.809013
vn 0.640301 -0.233729 -0.731701
vn 0.045777 -0.996963 -0.063007
vn 0.563754 0.283012 -0.775941
vn 0.579993 0.162293 -0.798292
vn 0.436193 0.670294 -0.600368
vn 0.498024 -0.233729 -0.835070
vn 0.000000 -0.003256 -0.999995
vn 0.087931 -0.233729 -0.968318
vn -0.000000 -0.996963 -0.077881
vn -0.000000 0.283012 -0.959116
vn -0.000000 0.162293 -0.986743
vn -0.000000 0.670294 -0.742095
vn -0.087931 -0.233729 -0.968318
vn -0.587782 -0.003256 -0.809013
vn -0.498024 -0.233729 -0.835070
vn -0.045777 -0.996963 -0.063007
vn -0.563754 0.283012 -0.775941
vn -0.579993 0.162293 -0.798292
vn -0.436193 0.670294 -0.600368
vn -0.640301 -0.233729 -0.731701
vn -0.951052 -0.003256 -0.309015
vn -0.893752 -0.233729 -0.382854
vn -0.074069 -0.996963 -0.024067
vn -0.912174 0.283012 -0.296383
vn -0.938448 0.162293 -0.304920
vn -0.705774 0.670295 -0.229320
vn -0.948097 -0.233728 -0.215599
vn -0.951051 -0.003256 0.309015
vn -0.948097 -0.233728 0.215599
vn -0.074069 -0.996963 0.024067
vn -0.912174 0.283012 0.296383
vn -0.938448 0.162293 0.304920
vn -0.705774 0.670295 0.229320
vn -0.893752 -0.233729 0.382855
vn -0.587782 -0.003256 0.809013
vn -0.640300 -0.233729 0.731701
vn -0.045777 -0.996963 0.063007
vn -0.563754 0.283012 0.775942
vn -0.579993 0.162293 0.798292
vn -0.436192 0.670294 0.600368
vn -0.498024 -0.233729 0.835070
vn -0.087931 -0.233729 0.968318
vn -0.872675 -0.459374 0.165570
vn -0.722766 -0.649969 0.234841
vn -0.722766 -0.649969 -0.234841
vn -0.872675 -0.459374 -0.165570
vn -0.608689 -0.459374 0.646895
vn -0.446693 -0.649969 0.614821
vn -0.803329 -0.459374 0.378997
vn -0.112204 -0.459374 0.881128
vn 0.000000 -0.649970 0.759960
vn -0.427138 -0.459374 0.778800
vn 0.427138 -0.459374 0.778800
vn 0.446693 -0.649969 0.614821
vn 0.112205 -0.459374 0.881128
vn 0.803329 -0.459374 0.378997
vn 0.722765 -0.649969 0.234841
vn 0.608689 -0.459374 0.646895
vn 0.872675 -0.459374 -0.165571
vn 0.722765 -0.649969 -0.234841
vn 0.872675 -0.459374 0.165570
vn 0.608689 -0.459374 -0.646895
vn 0.446693 -0.649969 -0.614821
vn 0.803329 -0.459374 -0.378997
vn 0.112205 -0.459374 -0.881128
vn 0.000000 -0.649969 -0.759961
vn 0.427138 -0.459374 -0.778800
vn -0.427138 -0.459374 -0.778800
vn -0.446693 -0.649969 -0.614821
vn -0.112204 -0.459374 -0.881128
vn -0.803329 -0.459374 -0.378996
vn -0.608689 -0.459374 -0.646895

usemtl Material
f 3/3/3 2/2/2 1/1/1
f 4/4/4 3/3/3 1/1/1
f 5/5/5 4/4/4 1/1/1
f 6/6/6 5/5/5 1/1/1
f 7/7/7 6/6/6 1/1/1
f 8/8/8 7/7/7 1/1/1
f 9/9/9 8/8/8 1/1/1
f 10/10/10 9/9/9 1/1/1
f 11/11/11 10/10/10 1/1/1
f 2/2/2 11/11/11 1/1/1
f 14/14/14 13/13/13 12/12/12
f 14/14/14 12/12/12 15/15/15
f 14/14/14 15/15/15 16/16/16
f 14/14/14 16/16/16 17/17/17
f 14/14/14 17/17/17 18/18/18
f 14/14/14 18/18/18 19/19/19
f 14/14/14 19/19/19 20/20/20
f 14/14/14 20/20/20 21/21/21
f 14/14/14 21/21/21 22/22/22
f 14/14/14 22/22/22 13/13/13
f 67/26/26 24/25/25 23/24/24 66/23/23
f 24/30/28 26/29/28 25/28/27 23/27/27
f 26/34/32 28/33/31 27/32/30 25/31/29
f 28/33/31 30/36/34 29/35/33 27/32/30
f 30/36/34 12/12/12 13/13/13 29/35/33
f 68/38/37 31/37/36 24/25/25 67/26/35
f 31/40/38 32/39/38 26/29/28 24/30/28
f 32/42/40 33/41/39 28/33/31 26/34/32
f 33/41/39 34/43/41 30/36/34 28/33/31
f 34/43/41 15/15/15 12/12/12 30/36/34
f 69/45/44 35/44/43 31/37/36 68/38/42
f 35/47/45 36/46/45 32/39/38 31/40/38
f 36/49/47 37/48/46 33/41/39 32/42/40
f 37/48/46 38/50/48 34/43/41 33/41/39
f 38/50/48 16/16/16 15/15/15 34/43/41
f 70/52/51 39/51/50 35/44/43 69/45/49
f 39/54/52 40/53/52 36/46/45 35/47/45
f 40/56/54 41/55/53 37/48/46 36/49/47
f 41/55/53 42/57/55 38/50/48 37/48/46
f 42/57/55 17/17/17 16/16/16 38/50/48
f 71/59/58 43/58/57 39/51/50 70/52/56
f 43/61/59 44/60/59 40/53/52 39/54/52
f 44/63/61 45/62/60 41/55/53 40/56/54
f 45/62/60 46/64/62 42/57/55 41/55/53
f 46/64/62 18/18/18 17/17/17 42/57/55
f 72/66/65 47/65/64 43/58/57 71/59/63
f 47/68/66 48/67/66 44/60/59 43/61/59
f 48/70/68 49/69/67 45/62/60 44/63/61
f 49/69/67 50/71/69 46/64/62 45/62/60
f 50/71/69 19/19/19 18/18/18 46/64/62
f 64/73/72 51/72/71 47/65/64 72/66/70
f 51/75/73 52/74/73 48/67/66 47/68/66
f 52/77/75 53/76/74 49/69/67 48/70/68
f 53/76/74 54/78/76 50/71/69 49/69/67
f 54/78/76 20/20/20 19/19/19 50/71/69
f 63/80/79 55/79/78 51/72/71 64/73/77
f 55/82/80 56/81/80 52/74/73 51/75/73
f 56/84/82 57/83/81 53/76/74 52/77/75
f 57/83/81 58/85/83 54/78/76 53/76/74
f 58/85/83 21/21/21 20/20/20 54/78/76
f 65/87/86 59/86/85 55/79/78 63/80/84
f 59/89/87 60/88/87 56/81/80 55/82/80
f 60/91/89 61/90/88 57/83/81 56/84/82
f 61/90/88 62/92/90 58/85/83 57/83/81
f 62/92/90 22/22/22 21/21/21 58/85/83
f 66/23/92 23/24/24 59/86/85 65/87/91
f 23/27/27 25/28/27 60/88/87 59/89/87
f 25/31/29 27/32/30 61/90/88 60/91/89
f 27/32/30 29/35/33 62/92/90 61/90/88
f 29/35/33 13/13/13 22/22/22 62/92/90
f 64/73/96 9/94/95 10/93/94 63/80/93
f 63/80/99 10/93/94 11/95/98 65/87/97
f 65/87/102 11/95/98 2/96/101 66/23/100
f 66/23/105 2/96/101 3/97/104 67/26/103
f 67/26/108 3/97/104 4/98/107 68/38/106
f 68/38/111 4/98/107 5/99/110 69/45/109
f 69/45/114 5/99/110 6/100/113 70/52/112
f 70/52/117 6/100/113 7/101/116 71/59/115
f 71/59/120 7/101/116 8/102/119 72/66/118
f 72/66/122 8/102/119 9/94/95 64/73/121

usemtl default

